<?xml version="1.0" encoding="utf-8"?>
<!-- Generator: Adobe Illustrator 27.9.0, SVG Export Plug-In . SVG Version: 6.00 Build 0)  -->
<svg version="1.1" id="Layer_1" xmlns="http://www.w3.org/2000/svg" xmlns:xlink="http://www.w3.org/1999/xlink" x="0px" y="0px"
	 viewBox="0 0 482.6 264" style="enable-background:new 0 0 482.6 264;" xml:space="preserve">
<style type="text/css">
	.st0{fill:none;}
	.st1{fill:none;stroke:#000000;stroke-width:7;stroke-miterlimit:10;}
</style>
<g>
	<rect x="164.89" y="64.37" class="st0" width="317.71" height="236.28"/>
	<path d="M171.97,60v14.88h9.78v4.02h-9.78v19.08h-4.14v-42h16.8V60H171.97z"/>
	<path d="M188.52,55.98h16.86V60h-12.72v13.98h10.2v4.02h-10.2v15.96h12.84v4.02h-16.98V55.98z"/>
	<path d="M217.98,80.21h-1.56h-2.22v17.76h-4.14v-42h7.62c7.26,0,10.86,5.16,10.86,12.3c0,6.48-2.82,9.96-6.54,11.04l6.72,18.66
		h-4.5L217.98,80.21z M218.1,76.61c3.42,0,6.24-2.04,6.24-8.34c0-5.28-2.64-8.28-7.26-8.28h-2.88v16.62H218.1z"/>
	<path d="M242.22,60v37.98h-4.14V60h-7.86v-4.02h19.86V60H242.22z"/>
	<path d="M254.04,55.98h4.14v42h-4.14V55.98z"/>
	<path d="M264.06,55.98h4.14v37.98h12.24v4.02h-16.38V55.98z"/>
	<path d="M284.46,55.98h16.86V60H288.6v13.98h10.2v4.02h-10.2v15.96h12.84v4.02h-16.98V55.98z"/>
	<path d="M183.84,157.97c0-2.88,0.06-3.9,0.06-4.14h-0.18c-1.2,2.4-2.88,4.56-7.02,4.56c-6.66,0-10.2-5.64-10.2-21.54
		c-0.12-16.32,3.54-21.48,11.04-21.48c7.32,0,9.66,5.1,9.96,11.1l-3.96,1.08c-0.24-5.28-2.22-8.16-6.06-8.16
		c-5.22,0-6.72,5.04-6.72,17.16c0,13.26,1.8,18,6.96,18c4.26,0,5.7-3.48,6.12-6.36v-8.16h-6.36v-4.02h10.26v21.96H183.84z"/>
	<path d="M200.88,140.21h-1.56h-2.22v17.76h-4.14v-42h7.62c7.26,0,10.86,5.16,10.86,12.3c0,6.48-2.82,9.96-6.54,11.04l6.72,18.66
		h-4.5L200.88,140.21z M201,136.61c3.42,0,6.24-2.04,6.24-8.34c0-5.28-2.64-8.28-7.26-8.28h-2.88v16.62H201z"/>
	<path d="M225.72,115.38c7.92,0,11.22,5.58,11.22,21.6c0,15.96-3.24,21.6-11.22,21.6c-7.98,0-11.22-5.52-11.22-21.6
		C214.51,120.96,217.74,115.38,225.72,115.38z M225.72,154.55c5.22,0,6.9-4.26,6.9-17.52c0-13.32-1.68-17.64-6.9-17.64
		c-5.28,0-6.96,4.32-6.96,17.52C218.76,150.17,220.44,154.55,225.72,154.55z"/>
	<path d="M260.52,147.23c0,8.04-3.42,11.34-9.84,11.34c-6.48,0-9.9-3.3-9.9-11.34v-31.26h4.14v31.38c0,4.5,1.56,7.2,5.88,7.2
		c4.32,0,5.82-2.7,5.82-7.2v-31.38h3.9V147.23z"/>
	<path d="M269.82,124.5h-0.18c0,0.06,0.06,5.1,0.06,10.02v23.46h-3.9v-42h4.8l11.82,34.08h0.12c0-0.06-0.06-4.92-0.06-10.26v-23.82
		h3.96v42h-4.92L269.82,124.5z"/>
	<path d="M300.24,115.98c9.9,0,12.6,7.74,12.6,21.36c0,13.56-2.52,20.64-12.06,20.64h-8.46v-42H300.24z M300.24,153.95
		c6.9,0,8.28-5.58,8.28-16.2c0-12.84-1.86-17.76-8.58-17.76h-3.48v33.96H300.24z"/>
	<path d="M187.62,206.81c-0.9,7.14-3.18,11.76-10.2,11.76c-7.62,0-10.92-5.94-10.92-21.66c0-16.38,3.6-21.54,10.98-21.54
		s9.72,5.1,10.02,11.1l-3.9,1.08c-0.3-5.4-2.34-8.16-6.18-8.16c-5.1,0-6.66,4.92-6.66,17.4c0,13.38,1.74,17.76,6.72,17.76
		c3.84,0,5.52-2.82,6.24-8.76L187.62,206.81z"/>
	<path d="M202.02,175.38c7.92,0,11.22,5.58,11.22,21.6c0,15.96-3.24,21.6-11.22,21.6s-11.22-5.52-11.22-21.6
		C190.8,180.95,194.05,175.38,202.02,175.38z M202.02,214.55c5.22,0,6.9-4.26,6.9-17.52c0-13.32-1.68-17.64-6.9-17.64
		c-5.28,0-6.96,4.32-6.96,17.52C195.06,210.17,196.74,214.55,202.02,214.55z"/>
	<path d="M221.76,184.49h-0.18c0,0.06,0.06,5.1,0.06,10.02v23.46h-3.9v-42h4.8l11.82,34.08h0.12c0-0.06-0.06-4.92-0.06-10.26v-23.82
		h3.96v42h-4.92L221.76,184.49z"/>
	<path d="M246.66,207.41c0.24,3.96,1.44,7.14,6.06,7.14c3.54,0,5.46-2.16,5.46-6.3c0-4.98-2.88-7.14-6.66-10.08
		c-4.2-3.18-8.34-6.06-8.34-13.2c0-6,3.06-9.6,9.36-9.6c4.8,0,9.3,2.22,9.84,9.54l-4.08,1.14c-0.48-4.44-1.92-6.66-5.64-6.66
		c-3.06,0-5.22,1.56-5.22,5.64c0,4.44,2.46,6.36,6.84,9.66c4.62,3.48,8.16,6.36,8.16,13.38c0,6.84-3.3,10.5-9.66,10.5
		c-6.18,0-9.78-3.12-10.2-10.08L246.66,207.41z"/>
	<path d="M266.76,175.98h16.86v4.02H270.9v13.98h10.2v4.02h-10.2v15.96h12.84v4.02h-16.98V175.98z"/>
	<path d="M296.22,200.21h-1.56h-2.22v17.76h-4.14v-42h7.62c7.26,0,10.86,5.16,10.86,12.3c0,6.48-2.82,9.96-6.54,11.04l6.72,18.66
		h-4.5L296.22,200.21z M296.34,196.61c3.42,0,6.24-2.04,6.24-8.34c0-5.28-2.64-8.28-7.26-8.28h-2.88v16.62H296.34z"/>
	<path d="M316.8,217.97l-7.98-42h4.5l4.2,23.4c1.68,9.24,2.58,14.76,2.64,14.94h0.18c0-0.18,0.84-5.7,2.46-14.76l4.26-23.58h4.26
		l-7.92,42H316.8z"/>
	<path d="M337.08,207.35l-1.86,10.62h-4.14l7.74-42h6.24l7.74,42h-4.32l-1.8-10.62H337.08z M343.74,190.37
		c-0.72-3.96-1.74-10.62-1.8-10.8h-0.12c-0.06,0.18-1.14,6.66-1.86,10.62l-2.22,13.26h8.28L343.74,190.37z"/>
	<path d="M360.6,184.49h-0.18c0,0.06,0.06,5.1,0.06,10.02v23.46h-3.9v-42h4.8l11.82,34.08h0.12c0-0.06-0.06-4.92-0.06-10.26v-23.82
		h3.96v42h-4.92L360.6,184.49z"/>
	<path d="M402.9,206.81c-0.9,7.14-3.18,11.76-10.2,11.76c-7.62,0-10.92-5.94-10.92-21.66c0-16.38,3.6-21.54,10.98-21.54
		s9.72,5.1,10.02,11.1l-3.9,1.08c-0.3-5.4-2.34-8.16-6.18-8.16c-5.1,0-6.66,4.92-6.66,17.4c0,13.38,1.74,17.76,6.72,17.76
		c3.84,0,5.52-2.82,6.24-8.76L402.9,206.81z"/>
	<path d="M418.8,217.97h-4.08v-17.16l-9.06-24.84h4.62l4.56,13.44c1.02,3.06,1.92,5.88,1.98,6h0.12c0.06-0.12,0.96-2.94,1.98-5.94
		l4.62-13.5h4.26l-9,24.84V217.97z"/>
</g>
<rect x="50.28" y="58.15" class="st1" width="98.87" height="155.97"/>
<path class="st1" d="M149.16,83.83c0,14.18-11.5,25.68-25.68,25.68S97.8,98.01,97.8,83.83s11.5-25.68,25.68-25.68"/>
<line class="st1" x1="50.28" y1="109.51" x2="87.07" y2="109.51"/>
<line class="st1" x1="87.07" y1="106.01" x2="87.07" y2="178.36"/>
<path class="st1" d="M137.37,182.71c-2.21,8.46-9.91,14.7-19.06,14.7c-10.88,0-19.7-8.82-19.7-19.7c0-10.88,8.82-19.7,19.7-19.7
	c9.52,0,17.46,6.75,19.3,15.73"/>
<path class="st1" d="M149.16,178.23c0,17.12-13.97,31.13-31.09,31.13c-17.12,0-30.99-14.53-30.99-31.64"/>
<g>
</g>
<g>
</g>
<g>
</g>
<g>
</g>
<g>
</g>
<g>
</g>
</svg>
